<svg width="60" height="60" viewBox="0 0 60 60" fill="none" xmlns="http://www.w3.org/2000/svg">
<g clip-path="url(#clip0_117_629)">
<path d="M55.3479 31.1019V3.77964C55.3479 2.80489 54.5576 2.01465 53.5829 2.01465H6.29505C5.3203 2.01465 4.53006 2.80489 4.53006 3.77964V33.28C3.67863 33.404 2.84626 33.7346 2.10991 34.2812C-0.211409 35.9273 -0.760439 39.6109 1.18399 41.8827L9.13386 51.5204C14.0549 57.2798 19.2824 57.9854 27.0538 57.9854C33.7228 57.9854 36.7043 58.0148 42.5164 56.6905L48.1759 55.3369C49.0936 56.6184 50.5504 57.4485 52.1882 57.4485H54.9762C57.7463 57.4485 59.9999 55.0744 59.9999 52.1561V36.3784C60 33.592 57.9449 31.3031 55.3479 31.1019ZM47.4146 34.7326L45.0629 33.5382C41.1963 31.5865 36.7258 31.5142 32.7981 33.3403C31.7265 33.7618 29.3893 35.1759 28.177 35.1286H20.0167C17.3099 35.1286 15.1076 37.3307 15.1076 40.0376V41.3247C15.0925 41.3087 15.0766 41.2936 15.0616 41.2773L9.23423 34.9519C8.88158 34.5692 8.4854 34.2489 8.06016 33.9919V16.481H22.504V22.951C22.504 23.9257 23.2943 24.7159 24.269 24.7159H35.4062C36.3809 24.7159 37.1712 23.9257 37.1712 22.951V16.481H51.818V31.1018C49.7558 31.2611 48.0362 32.7364 47.4146 34.7326ZM26.0339 16.481H33.6411V21.186H26.0339V16.481ZM51.8179 12.951H37.1712V5.54463H51.818V12.951H51.8179ZM33.6412 5.54463V12.9511H26.034V5.54463H33.6412ZM22.5039 5.54463V12.9511H8.06004V5.54463H22.5039ZM41.6972 53.2568C36.3281 54.4865 33.0945 54.4367 27.1171 54.4367C19.8218 54.4367 16.2969 54.3188 11.8571 49.274L3.90725 39.6363C2.52444 37.8357 5.02908 35.7101 6.63804 37.3435L12.4655 43.669C14.0056 45.2941 15.9437 46.1885 18.3324 46.2411H34.4889C35.4636 46.2411 36.2539 45.4508 36.2539 44.4761C36.2539 43.5013 35.4636 42.7111 34.4889 42.7111H18.6375V40.0373C18.6375 39.277 19.2561 38.6583 20.0165 38.6583H28.1769C30.0153 38.79 32.6688 37.2549 34.2863 36.541C37.2279 35.1733 40.5762 35.2274 43.4683 36.6872L47.1647 38.5646V51.9489L41.6972 53.2568ZM56.4701 52.156C56.4701 53.1278 55.7999 53.9184 54.9763 53.9184H52.1883C51.3646 53.9184 50.6947 53.1278 50.6947 52.156V36.3784C50.6947 35.4066 51.3648 34.6159 52.1883 34.6159H54.9763C55.7999 34.6159 56.4701 35.4065 56.4701 36.3784V52.156Z" fill="#242424"/>
</g>
<defs>
<clipPath id="clip0_117_629">
<rect width="60" height="60" fill="white"/>
</clipPath>
</defs>
</svg>
