<svg width="129" height="53" viewBox="0 0 129 53" fill="none" xmlns="http://www.w3.org/2000/svg">
<g id="logo">
<path id="Vector" d="M32.1616 43.1681V22.8899H38.6042C41.7459 22.8489 44.3309 23.7809 46.3591 25.6858C48.3873 27.5703 49.3816 29.9976 49.3417 32.9676C49.3816 35.9171 48.3773 38.3648 46.3293 40.3108C44.2812 42.2567 41.7061 43.2092 38.6042 43.1681H32.1616ZM36.1882 39.4197H38.5743C40.5627 39.4197 42.1635 38.836 43.3764 37.6684C44.5893 36.4805 45.1958 34.9135 45.1958 32.9676C45.1958 31.0012 44.5993 29.4547 43.4062 28.3281C42.2132 27.2016 40.6025 26.6383 38.5743 26.6383H36.1882V39.4197ZM50.7266 33.029C50.6868 30.1409 51.7009 27.6522 53.7689 25.5629C55.8568 23.4737 58.3224 22.4597 61.1659 22.5212C64.0094 22.4597 66.475 23.4737 68.5629 25.5629C70.6706 27.6522 71.7047 30.1409 71.6648 33.029C71.7047 35.9171 70.6706 38.4058 68.5629 40.4951C66.475 42.5844 64.0094 43.5983 61.1659 43.5368C58.3224 43.5983 55.8568 42.5844 53.7689 40.4951C51.7009 38.4058 50.6868 35.9171 50.7266 33.029ZM67.519 33.029C67.519 31.1037 66.9124 29.5161 65.6995 28.2667C64.5065 26.9967 63.0051 26.3618 61.1957 26.3618C59.3663 26.3618 57.8551 26.9866 56.6621 28.236C55.469 29.4854 54.8725 31.0831 54.8725 33.029C54.8725 34.975 55.469 36.5726 56.6621 37.8221C57.8551 39.0715 59.3663 39.6963 61.1957 39.6963C63.0051 39.6963 64.5065 39.0715 65.6995 37.8221C66.9124 36.5726 67.519 34.975 67.519 33.029ZM73.0464 33.029C73.0066 30.1409 74.0207 27.6522 76.0887 25.5629C78.1766 23.4737 80.6422 22.4597 83.4857 22.5212C86.3292 22.4597 88.7949 23.4737 90.8827 25.5629C92.9904 27.6522 94.0245 30.1409 93.9847 33.029C94.0245 35.9171 92.9904 38.4058 90.8827 40.4951C88.7949 42.5844 86.3292 43.5983 83.4857 43.5368C80.6422 43.5983 78.1766 42.5844 76.0887 40.4951C74.0207 38.4058 73.0066 35.9171 73.0464 33.029ZM89.8388 33.029C89.8388 31.1037 89.2323 29.5161 88.0194 28.2667C86.8263 26.9967 85.325 26.3618 83.5156 26.3618C81.6861 26.3618 80.175 26.9866 78.9819 28.236C77.7888 29.4854 77.1923 31.0831 77.1923 33.029C77.1923 34.975 77.7888 36.5726 78.9819 37.8221C80.175 39.0715 81.6861 39.6963 83.5156 39.6963C85.325 39.6963 86.8263 39.0715 88.0194 37.8221C89.2323 36.5726 89.8388 34.975 89.8388 33.029ZM113.113 43.1681H108.579L103.479 36.0093H100.526V43.1681H96.4997V22.8899H103.897C105.965 22.8899 107.665 23.4941 108.997 24.7026C110.329 25.9112 110.995 27.4883 110.995 29.4342C110.995 30.7042 110.687 31.8512 110.071 32.8754C109.474 33.879 108.629 34.6574 107.535 35.2105L113.113 43.1681ZM100.526 26.5461V32.3531H103.897C104.831 32.3531 105.557 32.0868 106.074 31.5542C106.611 31.0216 106.879 30.315 106.879 29.4342C106.879 28.5739 106.601 27.8776 106.044 27.345C105.507 26.8123 104.791 26.5461 103.897 26.5461H100.526ZM113.166 39.051L115.94 36.9003C117.332 38.8667 118.942 39.8499 120.771 39.8499C121.646 39.8499 122.332 39.6552 122.83 39.2661C123.327 38.8564 123.575 38.3034 123.575 37.607C123.575 37.0335 123.406 36.5931 123.068 36.2858C122.73 35.9581 122.064 35.5587 121.07 35.0876L118.952 34.1044C115.771 32.65 114.18 30.7042 114.18 28.2667C114.18 26.5461 114.796 25.1635 116.029 24.1189C117.262 23.0538 118.823 22.5212 120.712 22.5212C122.183 22.5212 123.476 22.8695 124.589 23.5658C125.703 24.2418 126.578 25.1738 127.214 26.3618L124.47 28.5432C123.456 26.9866 122.203 26.2081 120.712 26.2081C119.996 26.2081 119.409 26.3822 118.952 26.7305C118.495 27.0787 118.266 27.56 118.266 28.1745C118.266 28.6865 118.425 29.1066 118.743 29.4342C119.081 29.7415 119.688 30.0999 120.563 30.5096L122.8 31.5235C124.49 32.3019 125.723 33.1519 126.498 34.0737C127.274 34.975 127.661 36.1015 127.661 37.4534C127.661 39.2764 127.015 40.7512 125.723 41.8777C124.43 42.9838 122.78 43.5368 120.771 43.5368C119.121 43.5368 117.63 43.1374 116.298 42.3386C114.985 41.5397 113.941 40.4439 113.166 39.051Z" fill="black"/>
<path id="Vector_2" d="M15.8786 12.398V18.4348H13.3015V12.7716C13.3015 12.1948 13.1488 11.736 12.8434 11.3952C12.5379 11.0543 12.1307 10.8839 11.6217 10.8839C11.1126 10.8839 10.6927 11.0543 10.3618 11.3952C10.0436 11.736 9.88457 12.1752 9.88457 12.7126V18.4348H7.30755V12.7716C7.30755 12.1948 7.15484 11.736 6.84941 11.3952C6.54399 11.0543 6.13675 10.8839 5.62772 10.8839C5.10595 10.8839 4.68599 11.0543 4.36784 11.3952C4.0497 11.736 3.89062 12.1948 3.89062 12.7716V18.4348H1.3136V8.70123H3.68064V9.56643C4.34238 8.84543 5.23322 8.48492 6.3531 8.48492C7.58752 8.48492 8.52288 8.9503 9.15919 9.88105C9.96092 8.9503 11.0108 8.48492 12.3089 8.48492C13.4033 8.48492 14.2687 8.83887 14.905 9.54677C15.5541 10.2547 15.8786 11.2051 15.8786 12.398ZM23.8502 8.70123V11.0412H23.163C22.3739 11.0412 21.7504 11.2575 21.2923 11.6901C20.8468 12.1227 20.6242 12.752 20.6242 13.5778V18.4348H18.0471V8.70123H20.4142V9.86139C21.0759 9.00929 21.9413 8.58324 23.0103 8.58324C23.3284 8.58324 23.6083 8.62257 23.8502 8.70123ZM23.5494 16.842C23.5494 16.3308 23.7212 15.8982 24.0648 15.5442C24.4084 15.1903 24.8346 15.0133 25.3438 15.0133C25.8401 15.0133 26.2536 15.1903 26.5846 15.5442C26.9282 15.8982 27.1 16.3308 27.1 16.842C27.1 17.3663 26.9344 17.8056 26.6036 18.1595C26.2727 18.5004 25.8528 18.6708 25.3438 18.6708C24.8346 18.6708 24.4084 18.5004 24.0648 18.1595C23.7212 17.8056 23.5494 17.3663 23.5494 16.842Z" fill="black"/>
<path id="Vector_3" d="M27.1422 23.0435H1.34216V43.1681H27.1422V23.0435Z" fill="#132A6E"/>
<path id="Vector_4" d="M127.807 8.91016H32.0636V18.2812H127.807V8.91016Z" fill="#D8171C"/>
</g>
</svg>
